<svg xmlns="http://www.w3.org/2000/svg" width="205" height="35" viewBox="0 0 205 35" fill="none" role="img"><title>WHOOP Logo</title><path d="M56.3721 0.855469H52.293V34.1962H56.3721V0.855469Z" fill="#ffffffff"></path><path d="M72.1082 15.4844H60.4258V19.5652H72.1082V15.4844Z" fill="#ffffffff"></path><path d="M80.2627 0.855469H76.1836V34.1962H80.2627V0.855469Z" fill="#ffffffff"></path><path d="M170.727 34.1962H174.806V0.855469H170.727V34.1962Z" fill="#ffffffff"></path><path d="M184.326 0.855469H178.859V4.82526H184.326C188.433 4.93631 191.652 8.35088 191.541 12.4317C191.43 16.3738 188.266 19.5385 184.326 19.6495H178.859V23.6193H184.326C190.597 23.6193 195.703 18.5113 195.703 12.2374C195.703 5.96345 190.625 0.855469 184.326 0.855469Z" fill="#ffffffff"></path><path d="M104.993 0.855469C95.7806 0.855469 88.3161 8.32312 88.3438 17.5397C88.3716 26.7563 95.8083 34.2239 105.021 34.1962C114.234 34.1962 121.671 26.7285 121.671 17.5119C121.643 8.32312 114.206 0.855469 104.993 0.855469ZM104.993 30.2819C97.9728 30.2819 92.2565 24.5632 92.2565 17.5397C92.2565 10.5162 97.9728 4.7975 104.993 4.7975C112.014 4.7975 117.73 10.4885 117.73 17.5397C117.73 24.5632 112.042 30.2819 104.993 30.2819Z" fill="#ffffffff"></path><path d="M145.474 0.855469C136.261 0.855469 128.797 8.32312 128.824 17.5397C128.852 26.7563 136.289 34.2239 145.502 34.1962C154.714 34.1962 162.151 26.7285 162.151 17.5119C162.123 8.32312 154.686 0.855469 145.474 0.855469ZM145.474 30.2819C138.453 30.2819 132.737 24.5909 132.737 17.5397C132.737 10.4885 138.425 4.7975 145.474 4.7975C152.494 4.7975 158.211 10.4885 158.211 17.5397C158.211 24.5632 152.494 30.2819 145.474 30.2819Z" fill="#ffffffff"></path><path d="M32.4845 27.7001L28.1556 13.4589H24.1875L30.5143 34.1962H34.4547L44.6108 0.855469H40.6427L32.4845 27.7001Z" fill="#ffffffff"></path><path d="M4.01069 0.855469H0.0703125L6.36936 21.5928H10.3375L4.01069 0.855469Z" fill="#ffffffff"></path><path d="M20.3511 0.855469L10.2227 34.1962H14.163L24.3192 0.855469H20.3511Z" fill="#ffffffff"></path><path d="M202.392 5.7422C201.032 5.7422 199.922 4.63177 199.922 3.27149C199.922 1.91122 201.032 0.800781 202.392 0.800781C203.751 0.800781 204.861 1.91122 204.861 3.27149C204.861 4.63177 203.751 5.7422 202.392 5.7422ZM202.392 1.27271C201.309 1.27271 200.421 2.16106 200.421 3.24373V3.27149C200.366 4.35416 201.198 5.27027 202.281 5.32579C203.363 5.38131 204.278 4.54849 204.334 3.46582C204.334 3.4103 204.334 3.32701 204.334 3.27149C204.362 2.18882 203.502 1.30047 202.419 1.27271H202.392ZM202.919 4.60401L202.364 3.5491H202.031V4.60401H201.531V1.93898H202.53C202.974 1.93898 203.363 2.2721 203.391 2.74404C203.391 3.07717 203.169 3.35477 202.863 3.46582L203.446 4.57625L202.919 4.60401ZM202.475 2.35539H202.031V3.16045H202.475C202.697 3.18821 202.891 3.04941 202.947 2.82732C202.974 2.60523 202.836 2.41091 202.614 2.35539H202.586C202.558 2.35539 202.503 2.35539 202.475 2.35539Z" fill="#ffffffff"></path></svg>