<?xml version="1.0" encoding="utf-8"?>
<!-- Generator: Adobe Illustrator 25.2.1, SVG Export Plug-In . SVG Version: 6.00 Build 0)  -->
<svg version="1.1" id="withings_logotype_black" xmlns="http://www.w3.org/2000/svg" xmlns:xlink="http://www.w3.org/1999/xlink"
	 x="0px" y="0px" viewBox="0 0 493.6 199.9" style="enable-background:new 0 0 493.6 199.9;" xml:space="preserve">
<style type="text/css">
	.st0{fill:#020203;}
</style>
<g>
	<path class="st0" d="M0,69.3h11.7l14.6,45.5l15.1-45.7h9.1l15.1,45.7l14.6-45.5h11.3l-21.4,61.8h-9.3L45.8,87l-15.1,44.1h-9.3
		L0,69.3z"/>
	<path class="st0" d="M107.6,69.3h10.7v61.4h-10.7V69.3z"/>
	<path class="st0" d="M154.2,79.3h-19.5v-10h49.8v10h-19.4v51.4h-10.9V79.3z"/>
	<path class="st0" d="M200.3,69.3H211v25.5h29.5V69.3h10.7v61.4h-10.7v-25.9H211v25.9h-10.7V69.3z"/>
	<path class="st0" d="M272,69.3h10.7v61.4H272V69.3z"/>
	<path class="st0" d="M303.5,69.3h10l32.8,42.4V69.3H357v61.4h-9L314.2,87v43.7h-10.7V69.3z"/>
	<path class="st0" d="M406.3,131.7c-4.8,0-9.2-0.8-13.1-2.4c-3.9-1.6-7.3-3.8-10-6.7c-2.8-2.8-4.9-6.2-6.4-10s-2.3-8-2.3-12.5V100
		c0-4.3,0.8-8.3,2.3-12.2c1.6-3.9,3.7-7.2,6.6-10.1c2.8-2.9,6.2-5.2,10.1-6.9c3.9-1.7,8.1-2.5,12.8-2.5c2.7,0,5.1,0.2,7.3,0.6
		c2.2,0.4,4.2,0.9,6.1,1.6s3.6,1.6,5.3,2.6c1.7,1,3.3,2.2,4.9,3.6l-6.8,8.2c-1.2-1-2.4-1.9-3.6-2.7c-1.2-0.8-2.5-1.5-3.9-2.1
		c-1.3-0.6-2.8-1-4.4-1.3s-3.4-0.5-5.3-0.5c-2.8,0-5.4,0.6-7.8,1.8c-2.4,1.2-4.5,2.7-6.3,4.7s-3.2,4.3-4.2,6.9s-1.5,5.4-1.5,8.3v0.2
		c0,3.2,0.5,6.1,1.5,8.8c1,2.7,2.4,5,4.2,6.9c1.8,1.9,4,3.5,6.6,4.6c2.5,1.1,5.4,1.7,8.5,1.7c2.9,0,5.6-0.4,8.2-1.3
		c2.5-0.9,4.7-2,6.6-3.4V106H406v-9.4h26.1v25.8c-1.5,1.3-3.2,2.5-5,3.7s-3.8,2.2-6,3.1c-2.1,0.9-4.4,1.6-6.9,2.1
		C411.6,131.5,409,131.7,406.3,131.7z"/>
	<path class="st0" d="M471.9,131.6c-4.7,0-9.3-0.8-13.6-2.4c-4.3-1.6-8.3-4.1-12-7.4l6.5-7.7c3,2.6,6,4.5,9,5.9s6.5,2.1,10.3,2.1
		c3.3,0,6-0.7,7.9-2.1s2.9-3.3,2.9-5.6v-0.2c0-1.1-0.2-2.1-0.6-2.9c-0.4-0.8-1.1-1.7-2.1-2.4c-1-0.8-2.4-1.5-4.2-2.1s-4.1-1.3-7-1.9
		c-3.3-0.8-6.2-1.6-8.7-2.6s-4.7-2.1-6.4-3.5c-1.7-1.4-3-3.1-4-5c-0.9-2-1.4-4.4-1.4-7.2v-0.2c0-2.6,0.5-5,1.6-7.2
		c1-2.2,2.5-4.1,4.3-5.6s4-2.8,6.6-3.6c2.6-0.9,5.4-1.3,8.4-1.3c4.5,0,8.5,0.7,12.1,2s7,3.2,10.1,5.7l-5.8,8.2
		c-2.8-2-5.6-3.6-8.3-4.7s-5.5-1.6-8.3-1.6c-3.2,0-5.6,0.7-7.4,2.1s-2.6,3.1-2.6,5.2v0.2c0,1.2,0.2,2.2,0.6,3.1s1.2,1.7,2.2,2.5
		c1.1,0.7,2.6,1.4,4.5,2.1c1.9,0.6,4.3,1.3,7.3,2c3.2,0.8,6.1,1.7,8.6,2.7s4.6,2.2,6.2,3.6c1.6,1.4,2.9,3.1,3.7,5
		c0.9,1.9,1.3,4.1,1.3,6.6v0.2c0,2.9-0.5,5.4-1.6,7.7c-1.1,2.3-2.6,4.2-4.5,5.8s-4.2,2.8-6.9,3.6C478,131.1,475.1,131.6,471.9,131.6
		z"/>
</g>
</svg>
